<svg width="192" height="27" viewBox="0 0 192 27" fill="none" xmlns="http://www.w3.org/2000/svg">
<path d="M14.8352 22.9817C14.1778 23.9822 13.2916 24.7254 12.1769 25.2399C11.0621 25.7544 9.89013 26.0117 8.66101 26.0117C7.31755 26.0117 6.08843 25.7544 5.03082 25.2685C3.9732 24.7825 3.05851 24.0965 2.31532 23.2676C1.57213 22.41 1.00045 21.4382 0.600268 20.3234C0.200089 19.2086 0 18.0081 0 16.7504C0 15.4927 0.200089 14.2921 0.628852 13.1774C1.02903 12.0626 1.6293 11.0621 2.37249 10.2332C3.11568 9.40424 4.03037 8.7468 5.08799 8.26087C6.1456 7.77494 7.34614 7.54626 8.63243 7.54626C9.9473 7.54626 11.0907 7.80352 12.1197 8.34662C13.1487 8.88972 13.9491 9.57574 14.5779 10.4047H14.6637V7.97503H19.0085V25.5829H14.9209V23.0103H14.8352V22.9817ZM4.3448 16.7504C4.3448 17.4936 4.45913 18.2082 4.68781 18.9228C4.91648 19.6088 5.25949 20.2091 5.68825 20.7236C6.1456 21.2381 6.6887 21.6669 7.34614 21.9527C8.00357 22.2671 8.74676 22.41 9.5757 22.41C10.3761 22.41 11.0907 22.2671 11.7481 21.9527C12.4055 21.6383 12.9486 21.2381 13.4346 20.7236C13.8919 20.2091 14.2635 19.6088 14.5208 18.9228C14.778 18.2368 14.8924 17.4936 14.8924 16.7218C14.8924 15.9786 14.778 15.264 14.5208 14.5494C14.2635 13.8634 13.8919 13.2631 13.4346 12.7486C12.9772 12.2341 12.4055 11.8053 11.7481 11.5195C11.0907 11.205 10.3761 11.0621 9.5757 11.0621C8.71818 11.0621 7.97499 11.205 7.34614 11.5195C6.6887 11.8339 6.1456 12.2341 5.68825 12.7486C5.23091 13.2631 4.91648 13.8634 4.68781 14.5494C4.45913 15.2926 4.3448 16.0072 4.3448 16.7504Z" fill="#28004B"/>
<path d="M35.1583 12.9775C34.8153 12.4916 34.3008 12.0914 33.6434 11.7484C32.9574 11.4339 32.2713 11.2624 31.5853 11.2624C30.785 11.2624 30.0989 11.4339 29.4701 11.7484C28.8698 12.0628 28.3553 12.4916 27.9551 13.0347C27.5549 13.5778 27.2691 14.178 27.069 14.8355C26.8689 15.4929 26.7832 16.1789 26.7832 16.8364C26.7832 17.5224 26.8975 18.1798 27.0976 18.8372C27.2977 19.4947 27.6121 20.0949 28.0123 20.638C28.4125 21.1811 28.927 21.6099 29.5558 21.9243C30.1847 22.2388 30.8993 22.4103 31.7282 22.4103C32.4143 22.4103 33.0717 22.2673 33.7577 22.0101C34.4437 21.7528 34.9868 21.3527 35.387 20.8381L38.1025 23.6108C37.3879 24.3826 36.4446 24.9828 35.3298 25.4116C34.2151 25.8404 32.9859 26.0405 31.6711 26.0405C30.3848 26.0405 29.1842 25.8404 28.0123 25.4116C26.8689 25.0114 25.8685 24.3826 25.0109 23.6108C24.1534 22.8104 23.4674 21.8386 22.9815 20.6952C22.4955 19.5518 22.2383 18.2656 22.2383 16.8078C22.2383 15.4071 22.4955 14.1209 22.9815 13.0061C23.4674 11.8627 24.1534 10.8908 24.9824 10.0905C25.8399 9.29013 26.8117 8.66127 27.9265 8.23251C29.0413 7.80375 30.2419 7.57507 31.5281 7.57507C32.8144 7.57507 34.0436 7.80375 35.2441 8.28968C36.4446 8.77561 37.3879 9.43305 38.1025 10.2906L35.1583 12.9775Z" fill="#28004B"/>
<path d="M51.7086 12.9775C51.3656 12.4916 50.8511 12.0914 50.1937 11.7484C49.5076 11.4339 48.8216 11.2624 48.1356 11.2624C47.3352 11.2624 46.6492 11.4339 46.0204 11.7484C45.4201 12.0628 44.9056 12.4916 44.5054 13.0347C44.1052 13.5778 43.8194 14.178 43.6193 14.8355C43.4192 15.4929 43.3335 16.1789 43.3335 16.8364C43.3335 17.5224 43.4478 18.1798 43.6479 18.8372C43.848 19.4947 44.1624 20.0949 44.5626 20.638C44.9628 21.1811 45.4773 21.6099 46.1061 21.9243C46.735 22.2388 47.4496 22.4103 48.2785 22.4103C48.9645 22.4103 49.622 22.2673 50.308 22.0101C50.994 21.7528 51.5371 21.3527 51.9373 20.8381L54.6528 23.6108C53.9382 24.3826 52.9949 24.9828 51.8801 25.4116C50.7654 25.8404 49.5362 26.0405 48.2214 26.0405C46.9351 26.0405 45.7345 25.8404 44.5626 25.4116C43.4192 25.0114 42.4188 24.3826 41.5612 23.6108C40.7037 22.8104 40.0177 21.8386 39.5318 20.6952C39.0458 19.5518 38.7886 18.2656 38.7886 16.8078C38.7886 15.4071 39.0458 14.1209 39.5318 13.0061C40.0177 11.8627 40.7037 10.8908 41.5327 10.0905C42.3902 9.29013 43.362 8.66127 44.4768 8.23251C45.5916 7.80375 46.7921 7.57507 48.0784 7.57507C49.3647 7.57507 50.5938 7.80375 51.7944 8.28968C52.9949 8.77561 53.9382 9.43305 54.6528 10.2906L51.7086 12.9775Z" fill="#28004B"/>
<path d="M55.3105 16.779C55.3105 15.407 55.5678 14.1493 56.0537 13.0345C56.5397 11.9197 57.2257 10.9478 58.0546 10.1475C58.9122 9.34713 59.9126 8.71828 61.056 8.28952C62.2279 7.86075 63.457 7.63208 64.7719 7.63208C66.0868 7.63208 67.3159 7.86075 68.4879 8.28952C69.6598 8.71828 70.6603 9.34713 71.4892 10.1475C72.3467 10.9478 73.0042 11.9197 73.4901 13.0345C73.976 14.1493 74.2333 15.407 74.2333 16.779C74.2333 18.1511 73.976 19.4088 73.4901 20.5521C73.0042 21.6955 72.3181 22.6674 71.4892 23.4677C70.6317 24.2681 69.6312 24.9255 68.4879 25.3829C67.3445 25.8402 66.0868 26.0689 64.7719 26.0689C63.457 26.0689 62.2279 25.8402 61.056 25.3829C59.884 24.9255 58.8836 24.2967 58.0546 23.4677C57.1971 22.6674 56.5397 21.6955 56.0537 20.5521C55.5678 19.4374 55.3105 18.1796 55.3105 16.779ZM59.7411 16.779C59.7411 17.465 59.8554 18.1225 60.0555 18.8085C60.2556 19.4945 60.57 20.0948 60.9702 20.6093C61.3704 21.1524 61.9135 21.5812 62.5423 21.9242C63.1712 22.2672 63.9144 22.4387 64.8005 22.4387C65.658 22.4387 66.4298 22.2672 67.0587 21.9242C67.6875 21.5812 68.202 21.1524 68.6308 20.6093C69.031 20.0662 69.3454 19.4659 69.5455 18.8085C69.7456 18.1225 69.8599 17.465 69.8599 16.779C69.8599 16.093 69.7456 15.4356 69.5455 14.7781C69.3454 14.1207 69.031 13.5204 68.6308 12.9773C68.2306 12.4342 67.6875 12.0055 67.0587 11.691C66.4298 11.3766 65.6866 11.2051 64.8005 11.2051C63.943 11.2051 63.1712 11.3766 62.5423 11.691C61.9135 12.0055 61.399 12.4342 60.9702 12.9773C60.57 13.5204 60.2556 14.1207 60.0555 14.7781C59.8554 15.4356 59.7411 16.1216 59.7411 16.779Z" fill="#28004B"/>
<path d="M93.3558 25.583H89.2111V22.7817H89.1254C88.7252 23.6392 88.0677 24.411 87.1245 25.097C86.1812 25.7545 85.0378 26.0975 83.7229 26.0975C82.5796 26.0975 81.6077 25.8974 80.8074 25.4972C80.007 25.097 79.321 24.5825 78.8065 23.9251C78.292 23.2676 77.8918 22.5245 77.6631 21.6669C77.4344 20.8094 77.2915 19.9519 77.2915 19.0658V8.14661H81.6363V17.8081C81.6363 18.3226 81.6649 18.8371 81.7506 19.4088C81.8364 19.9519 81.9793 20.4664 82.2366 20.9237C82.4652 21.3811 82.8083 21.7527 83.237 22.0385C83.6658 22.3244 84.2089 22.4673 84.9235 22.4673C85.6095 22.4673 86.2098 22.3244 86.7243 22.0385C87.2388 21.7527 87.6676 21.4097 87.982 20.9809C88.2964 20.5521 88.5537 20.0376 88.7252 19.4659C88.8967 18.8943 88.9824 18.3226 88.9824 17.7509V8.14661H93.3272V25.583H93.3558Z" fill="#28004B"/>
<path d="M97.5864 8.1466H101.731V10.9478H101.817C102.217 10.0903 102.875 9.31855 103.818 8.63253C104.761 7.97509 105.904 7.63208 107.219 7.63208C108.363 7.63208 109.335 7.83217 110.135 8.23235C110.935 8.63253 111.621 9.14704 112.136 9.80448C112.65 10.4619 113.05 11.2051 113.279 12.0626C113.508 12.9202 113.651 13.7777 113.651 14.6638V25.5544H109.306V15.9215C109.306 15.407 109.277 14.8925 109.192 14.3208C109.106 13.7777 108.963 13.2632 108.706 12.8058C108.477 12.3485 108.134 11.9769 107.705 11.691C107.276 11.4052 106.705 11.2623 106.019 11.2623C105.304 11.2623 104.704 11.4052 104.218 11.691C103.703 11.9769 103.303 12.3199 102.96 12.7487C102.646 13.1774 102.389 13.6919 102.217 14.2636C102.046 14.8353 101.96 15.407 101.96 15.9787V25.5544H97.615V8.1466H97.5864Z" fill="#28004B"/>
<path d="M115.309 11.6338V8.14654H118.367V3.11572H122.655V8.14654H127V11.6338H122.626V19.7231C122.626 20.4949 122.769 21.1523 123.055 21.6383C123.341 22.1528 123.97 22.4101 124.913 22.4101C125.199 22.4101 125.513 22.3815 125.856 22.3243C126.199 22.2671 126.485 22.1814 126.771 22.0385L126.914 25.4686C126.514 25.6115 126.056 25.7258 125.542 25.8116C124.999 25.8973 124.513 25.9259 124.027 25.9259C122.855 25.9259 121.912 25.7544 121.197 25.44C120.482 25.1255 119.882 24.6682 119.482 24.0965C119.053 23.5248 118.767 22.8674 118.624 22.1242C118.453 21.381 118.396 20.5807 118.396 19.7517V11.6338H115.309Z" fill="#28004B"/>
<path d="M131.516 24.6681C130.744 23.9821 130.373 23.0388 130.373 21.8383C130.373 20.8664 130.687 20.0661 131.287 19.4372C131.916 18.8084 132.631 18.3224 133.488 17.9508C134.346 17.5793 135.461 17.2077 136.833 16.7789C138.233 16.3787 139.291 15.9785 139.977 15.6355C140.663 15.2925 141.006 14.8352 141.006 14.2349V12.234C141.006 10.9763 140.691 10.1188 140.091 9.66143C139.462 9.20408 138.605 8.97541 137.49 8.97541C135.718 8.97541 134.46 9.37559 133.745 10.1474C134.26 10.2617 134.66 10.4904 135.003 10.8334C135.346 11.1764 135.518 11.6052 135.518 12.1197C135.518 12.6628 135.318 13.0915 134.917 13.406C134.517 13.7204 134.003 13.8633 133.374 13.8633C132.659 13.8633 132.145 13.6632 131.773 13.2916C131.43 12.92 131.23 12.4627 131.23 11.9196C131.23 11.4051 131.373 10.9763 131.659 10.6333C131.945 10.2903 132.373 9.94727 132.974 9.60426C133.574 9.23267 134.346 8.94683 135.289 8.68957C136.232 8.46089 137.233 8.34656 138.348 8.34656C140.32 8.34656 141.806 8.74674 142.807 9.54709C143.436 10.033 143.864 10.6333 144.064 11.3479C144.264 12.0625 144.379 12.9772 144.379 14.1206V23.1532C144.379 23.6963 144.465 24.0964 144.636 24.3251C144.808 24.5538 145.122 24.6681 145.551 24.6681C145.865 24.6681 146.151 24.611 146.408 24.4966C146.666 24.3823 146.951 24.2108 147.266 23.9821L147.695 24.5252C147.037 24.954 146.465 25.2684 146.008 25.4399C145.551 25.6114 144.95 25.7257 144.236 25.7257C143.035 25.7257 142.178 25.4685 141.692 24.954C141.206 24.4395 140.977 23.7249 140.977 22.8387C140.206 23.9249 139.348 24.6681 138.376 25.0969C137.404 25.5257 136.289 25.7257 135.032 25.7257C133.46 25.6972 132.288 25.3542 131.516 24.6681ZM141.006 21.924V15.5784C140.777 15.8928 140.463 16.1215 140.063 16.3215C139.662 16.5216 139.034 16.7789 138.205 17.0933C137.233 17.4363 136.461 17.7793 135.889 18.0938C135.289 18.4082 134.775 18.837 134.346 19.3801C133.917 19.9232 133.688 20.6092 133.688 21.4667C133.688 22.4386 133.974 23.1818 134.517 23.6677C135.06 24.1536 135.804 24.4109 136.718 24.4109C138.405 24.4109 139.834 23.5819 141.006 21.924Z" fill="#28004B"/>
<path d="M164.131 10.576C165.446 12.091 166.132 14.2634 166.132 17.1218C166.132 19.0083 165.76 20.609 164.988 21.9239C164.216 23.2388 163.216 24.2392 161.93 24.8967C160.643 25.5541 159.243 25.8971 157.671 25.8971C156.727 25.8971 155.841 25.7256 154.955 25.4112C154.098 25.0968 153.326 24.6108 152.668 24.0106L149.982 25.9543L149.324 25.7256C149.496 25.1825 149.581 24.5537 149.581 23.8391V3.94446C149.581 2.94401 149.353 2.22941 148.924 1.77206C148.495 1.31471 147.752 1.08604 146.694 1.08604V0.428601C147.495 0.48577 148.295 0.514354 149.038 0.514354C150.639 0.514354 151.954 0.371433 152.983 0.0570068V11.7765C153.526 10.6617 154.326 9.80422 155.384 9.20395C156.442 8.60368 157.614 8.28925 158.9 8.28925C161.072 8.31784 162.816 9.06103 164.131 10.576ZM161.187 23.2102C162.044 21.8953 162.444 19.8659 162.444 17.1218C162.444 14.492 162.073 12.5197 161.301 11.2048C160.529 9.91855 159.386 9.26112 157.814 9.26112C156.756 9.26112 155.784 9.60413 154.898 10.3187C154.012 11.0333 153.383 12.0052 153.011 13.2915V23.5818C153.583 24.0963 154.269 24.4965 155.012 24.7537C155.756 25.011 156.556 25.1539 157.356 25.1539C159.071 25.1825 160.329 24.5251 161.187 23.2102Z" fill="#28004B"/>
<path d="M172.877 22.4672C172.877 23.3533 173.077 23.9536 173.535 24.2966C173.963 24.6396 174.707 24.8111 175.764 24.8111V25.4685C173.449 25.3828 171.905 25.3256 171.191 25.3256C170.447 25.3256 168.933 25.3828 166.617 25.4685V24.7825C167.675 24.7825 168.418 24.611 168.847 24.268C169.276 23.925 169.504 23.3247 169.504 22.4386V3.91603C169.504 2.91559 169.276 2.20098 168.847 1.74364C168.418 1.28629 167.675 1.05761 166.617 1.05761V0.371594C167.389 0.428763 168.189 0.457347 168.961 0.457347C170.562 0.457347 171.877 0.314426 172.906 0V22.4672H172.877Z" fill="#28004B"/>
<path d="M192 21.5808C191.543 22.7814 190.685 23.7818 189.456 24.6393C188.198 25.4968 186.683 25.9256 184.94 25.9256C183.139 25.9256 181.595 25.5826 180.28 24.868C178.966 24.1534 177.965 23.1815 177.279 21.9238C176.593 20.6661 176.25 19.1797 176.25 17.5219C176.25 15.6353 176.593 14.006 177.308 12.634C178.022 11.2619 179.023 10.1757 180.309 9.43253C181.595 8.68934 183.11 8.31775 184.825 8.31775C187.112 8.31775 188.856 8.91802 190.085 10.09C191.314 11.2619 191.914 13.0627 191.914 15.4638H180.052C179.966 16.0641 179.937 16.7501 179.937 17.5504C179.937 18.9797 180.195 20.2088 180.738 21.295C181.281 22.3526 181.995 23.1815 182.91 23.7532C183.796 24.3249 184.74 24.6107 185.74 24.6107C186.94 24.6107 188.027 24.3535 188.97 23.8675C189.913 23.3816 190.685 22.5241 191.314 21.3807L192 21.5808ZM181.538 10.4044C180.681 11.4048 180.137 12.8626 179.937 14.8064H188.198C188.255 13.1199 187.97 11.7193 187.341 10.5759C186.712 9.46112 185.797 8.88943 184.597 8.88943C183.425 8.91802 182.396 9.43253 181.538 10.4044Z" fill="#28004B"/>
</svg>
